# xmcd
# 
# Track frame offsets:
#   300
#   15635
#   27835
#   42687
#   60967
#   75447
#   91740
#   103850
#   120995
#   137420
#   153807
#   169520
#   185355
#   196795
# 
# Disc length: 2831 seconds
# 
# Revision: 1
# Processed by: cddbd v1.5.1PL2 Copyright (c) Steve Scherf et al.
# Submitted via: Synapstar 1.0 
# 
DISCID=9b0b0b0e
DTITLE=Various Artist - SD018 - Country Hits Today
DYEAR=1900
DGENRE=Country
TTITLE0=George Strait - Lead On
TTITLE1=Leroy Parnell - A Little Bit Of You
TTITLE2=Faith Hill - Let's Go To Vegas
TTITLE3=Collin Raye - One Boy, One Girl
TTITLE4=Alabama - She Ain't Your Ordinary Girl
TTITLE5=Sawyer Brown - This Thing Called Wantin' And Havin' It
TTITLE6=Wade Hayes - Don't Stop
TTITLE7=Patty Loveless - Halfway Down
TTITLE8=John Berry - I Think About It All The Time
TTITLE9=Toby Keith - Big Ole' Truck
TTITLE10=James House - This Is Me Missing You
TTITLE11=Tracy Byrd - Walking To Jerusalem
TTITLE12=Confederate Railroad - When And Where
TTITLE13=Perfect Stranger - You Have The Right To Remain Silent
EXTD=MediaType: Karaoke CD+G Producer: StarDisc
EXTT0=
EXTT1=
EXTT2=
EXTT3=
EXTT4=
EXTT5=
EXTT6=
EXTT7=
EXTT8=
EXTT9=
EXTT10=
EXTT11=
EXTT12=
EXTT13=
PLAYORDER=
